<?xml version="1.0" encoding="utf-8"?><!DOCTYPE svg PUBLIC "-//W3C//DTD SVG 1.1//EN" "http://www.w3.org/Graphics/SVG/1.1/DTD/svg11.dtd"><svg version="1.1" xmlns="http://www.w3.org/2000/svg" width="257.3208220108696" height="112.95703125" viewBox="0 0 257.3208220108696 112.95703125"><g><g><rect fill="#FFFFFF" width="0" height="0" /></g><g transform="translate(0,0)"><path fill="#000000" d="M38.60 35.12L40.18 33.54L41.77 33.54Q47.14 33.54 50.94 40.18L50.94 40.18L49.68 45.88L53.16 45.88Q56.32 45.88 57.27 48.09L57.27 48.09Q57.27 54.11 29.43 69.29L29.43 69.29L29.43 69.93L30.06 69.93Q61.70 62.02 68.66 62.02L68.66 62.02L68.98 62.33L70.56 61.07L71.19 61.07L76.25 63.91L76.25 64.55L74.04 66.76Q72.14 65.18 64.86 65.18L64.86 65.18Q62.02 65.18 22.78 74.67L22.78 74.67L17.09 75.94L15.82 74.36L32.27 65.81Q43.66 58.85 53.16 49.68L53.16 49.68L53.16 48.41L50.94 48.41Q47.78 48.41 42.40 55.05L42.40 55.05Q37.02 58.85 34.49 58.85L34.49 58.85L30.38 58.85L28.79 56.95L28.79 56.64Q28.79 51.57 45.88 46.83L45.88 46.83Q47.46 43.98 47.46 39.55L47.46 39.55L42.40 36.70L41.77 37.34L40.82 37.34L38.60 35.12ZM33.86 55.69L33.86 55.69L33.86 56.64L34.49 56.64Q39.87 54.42 41.77 51.57L41.77 51.57L41.77 50.63Q34.17 53.79 33.86 55.69Z"/></g><g transform="translate(85.77360733695653,0)"><path fill="#000000" d="M37.97 16.14L39.87 14.24L40.50 14.24Q43.35 16.14 43.35 18.67L43.35 18.67L45.25 18.67L52.52 17.40L53.79 18.98Q53.79 20.57 45.25 24.05L45.25 24.05L43.35 28.79L46.51 28.16L48.41 30.06L48.41 30.69Q39.55 38.29 39.23 40.82L39.23 40.82L39.87 40.82Q43.03 38.29 45.25 38.29L45.25 38.29L48.73 38.29L50.63 40.18L50.63 40.82Q47.78 46.51 39.23 49.04L39.23 49.04L37.34 50.94L37.97 50.94Q39.87 50.94 43.35 48.73L43.35 48.73L43.98 49.04L43.98 49.68Q51.26 49.68 55.37 42.08L55.37 42.08L55.37 41.45Q53.16 41.45 53.16 40.18L53.16 40.18L54.74 38.92L56.00 38.92L58.54 41.45L58.54 42.08L57.27 45.56L57.90 45.56L68.66 43.66L71.19 45.56L71.19 46.20Q71.19 48.73 53.16 51.57L53.16 51.57Q52.52 52.84 45.88 56.95L45.88 56.95L41.13 62.96Q47.78 62.96 47.78 66.13L47.78 66.13L49.36 65.50Q52.21 66.45 53.79 68.98L53.79 68.98Q63.28 64.23 66.76 64.23L66.76 64.23Q69.29 65.18 69.29 66.13L69.29 66.13L69.29 67.08Q69.29 72.14 60.75 76.89L60.75 76.89L59.17 76.89L57.90 75.62Q57.90 72.46 60.43 71.51L60.43 71.51L62.02 72.77L65.18 68.34L65.18 67.71L63.91 67.71Q58.22 70.24 56.64 73.72L56.64 73.72Q56.64 76.89 54.74 76.89L54.74 76.89L54.42 76.89L49.36 67.71L48.41 67.71Q44.30 85.11 37.97 85.11L37.97 85.11Q35.12 84.48 35.12 76.25L35.12 76.25Q34.17 76.25 25.95 87.01L25.95 87.01L20.57 88.28L19.30 87.01L19.30 85.75L20.57 84.80L21.83 85.75Q28.79 82.58 35.12 68.34L35.12 68.34L34.49 68.34L25.95 71.51L23.73 69.61L37.97 60.12L39.23 56.95Q36.39 59.48 35.12 59.48L35.12 59.48L30.38 56.95Q15.50 61.70 10.44 61.70L10.44 61.70L9.18 60.12Q10.44 58.54 25.31 52.84L25.31 52.84L25.31 52.21L23.73 50.31L23.73 49.04L24.68 48.09L25.95 48.09Q29.11 50.31 29.11 51.57L29.11 51.57Q38.92 48.41 44.61 42.71L44.61 42.71L44.61 42.08L43.98 42.08Q41.77 44.30 33.86 47.46L33.86 47.46L31.96 44.93L39.87 33.54L39.23 28.16L30.38 30.06Q28.48 27.84 28.48 25.63L28.48 25.63L29.11 25.00L30.38 25.00L31.96 26.26L32.59 26.26Q39.87 24.68 39.87 22.78L39.87 22.78L39.87 20.88Q37.97 18.67 37.97 16.77L37.97 16.77L37.97 16.14ZM35.12 50.94L31.96 52.21L31.96 52.84L32.59 52.84L36.70 51.57L36.70 50.94L35.12 50.94ZM41.13 54.74L41.13 54.74L41.77 55.05L42.40 55.05L45.88 54.11L45.88 52.84L44.61 52.84Q41.13 53.16 41.13 54.74ZM36.39 55.05L35.12 55.05L35.12 55.69L36.39 55.69L36.39 55.05ZM37.97 72.77L37.97 72.77L37.97 73.72L38.60 81Q44.61 74.99 44.61 68.34L44.61 68.34L44.61 66.13L41.13 66.13Q38.92 66.13 37.97 72.77Z"/></g><g transform="translate(171.54721467391306,0)"><path fill="#000000" d="M44.61 29.74L62.65 25.63L63.60 25.63L63.60 28.16Q53.16 35.75 51.57 35.75L51.57 35.75L51.57 37.02Q51.57 40.50 49.36 44.30L49.36 44.30L49.36 47.14L57.59 41.13L59.48 41.13Q61.38 41.13 64.23 64.23L64.23 64.23L65.50 67.71Q64.23 70.56 62.96 70.88L62.96 70.88Q58.85 70.88 54.11 65.18L54.11 65.18L40.82 80.37L39.55 80.37L38.60 79.10Q51.57 66.13 52.21 59.17L52.21 59.17L51.57 52.84L53.47 51.57L56.64 54.42L56.00 62.33L61.38 67.08L62.02 67.08L58.22 48.41L58.85 48.41Q58.22 44.93 56.95 44.93L56.95 44.93Q46.83 51.26 46.83 58.85L46.83 58.85L46.83 62.96L46.20 63.60L46.83 64.23L46.83 67.71L44.61 70.24L42.71 67.71L42.71 63.60Q43.66 50.94 45.56 50.94L45.56 50.94L44.93 49.04Q46.51 43.66 47.46 43.66L47.46 43.66L46.83 43.03L46.83 42.40Q50.63 32.91 52.84 32.91L52.84 32.91L52.84 32.27Q42.71 32.27 42.71 37.02L42.71 37.02Q37.02 71.82 27.53 71.82L27.53 71.82L26.58 71.82L26.58 70.88Q34.17 60.43 34.17 56.95L34.17 56.95L32.59 56.32Q24.05 58.85 24.05 63.60L24.05 63.60L24.05 64.86Q25.95 67.08 25.95 68.98L25.95 68.98L24.68 70.24L24.05 70.24Q19.93 68.03 19.93 65.81L19.93 65.81Q16.77 68.03 14.87 73.09L14.87 73.09L13.29 74.36L12.66 74.36L11.39 73.09Q13.29 64.86 15.50 64.86L15.50 64.86L16.77 63.60L16.77 62.33L12.02 52.84L13.29 51.57L14.55 51.57Q16.14 51.57 16.14 55.05L16.14 55.05L19.30 58.85L19.93 58.85L25.95 47.14L25.31 46.83L25.31 46.20L26.58 43.66Q25.63 40.18 20.88 40.18L20.88 40.18L20.57 39.55L20.57 37.65L24.05 37.65Q28.48 37.65 29.43 40.18L29.43 40.18L29.43 43.03Q29.43 47.46 24.68 55.69L24.68 55.69L25.31 56.32L25.95 56.32Q28.48 53.16 35.44 53.16L35.44 53.16L36.07 53.16L37.97 54.42Q37.97 52.21 38.92 52.21L38.92 52.21L38.60 51.57Q38.92 47.14 39.55 47.14L39.55 47.14L38.92 46.83L38.92 46.20L40.18 44.93L39.55 44.30Q41.45 29.74 44.61 29.74L44.61 29.74ZM54.11 73.72L54.74 73.09Q79.42 73.41 79.42 77.20L79.42 77.20Q78.47 79.73 77.52 79.73L77.52 79.73Q75.30 79.73 72.77 77.20L72.77 77.20L71.51 77.20Q54.11 77.20 54.11 73.72L54.11 73.72Z"/></g></g></svg>